<svg xmlns="http://www.w3.org/2000/svg" viewBox="0 0 512 512" style="fill: #20c997;">
  <path d="M64 96c0-35.3 28.7-64 64-64H330.5c35.9 0 67.8 23.3 78.3 57.4l4.1 13.4c5.4-10.8 8.2-22.9 8.2-35.6V59c0-32.4-26.2-58.6-58.6-58.6H104.6C62.9 .4 29.1 34.1 29.1 75.9v12.4c0 12.7 2.8 24.8 8.2 35.6l4.1-13.4c10.5-34.1 42.4-57.4 78.3-57.4H266.9c-35.3 0-64 28.7-64 64v32H104.6c-22.9 0-42.3-16.2-46.8-38.5l-20.1 65.2C27.4 195.6 42.9 224 72 224h50.7l36.2-64H256V96zM80 320v48c0 8.8 7.2 16 16 16h32c8.8 0 16-7.2 16-16V320c0-8.8-7.2-16-16-16H96c-8.8 0-16 7.2-16 16zm144-16c-8.8 0-16 7.2-16 16v48c0 8.8 7.2 16 16 16h32c8.8 0 16-7.2 16-16V320c0-8.8-7.2-16-16-16H224zm112 16v48c0 8.8 7.2 16 16 16h32c8.8 0 16-7.2 16-16V320c0-8.8-7.2-16-16-16H352c-8.8 0-16 7.2-16 16zM72 272H72.1c13.1 0 24.7-8.4 28.8-20.8l6.6-20.1-10.6-19H72c-22.1 0-40 17.9-40 40s17.9 40 40 40zm296-96c-13.3 0-24 10.7-24 24s10.7 24 24 24h64c8.8 0 16 7.2 16 16s-7.2 16-16 16H280c-13.3 0-24 10.7-24 24s10.7 24 24 24H432c35.3 0 64-28.7 64-64s-28.7-64-64-64H368z"/>
  <path d="M466.5 312.8a32 32 0 1 0 -44.1 46.4 32 32 0 1 0 44.1-46.4zm-280 48a32 32 0 1 0 0-64 32 32 0 1 0 0 64zm136 0a32 32 0 1 0 0-64 32 32 0 1 0 0 64zM149.3 64H320c35.3 0 64 28.7 64 64H261.5L192 42.8 149.3 64z"/>
</svg>